#!OML:ASF H:\BreakDance\Project 1\Capture day 1\Session 1\Male.ASF
:FULLY-SPECIFIED
:DEGREES
416
root 23.2844 15.5404 -2.73511 -170.834 -146.806 177.298
lowerback 6.37993 -0.129762 4.99348
upperback 4.61243 0.0259216 -3.14166
thorax 1.21565 0.153893 -6.08519
lowerneck -6.50604 0.198626 3.25476
upperneck 12.1281 -0.70185 4.31516
head 4.72283 0.0390252 0.755136
rclavicle 1.26825e-013 -1.66979e-014
rhumerus 0.086272 28.3348 -85.6848
rradius 75.2622
rwrist 13.6087
rhand -42.6078 3.09112
rfingers 7.12502
rthumb -15.4806 -26.3091
lclavicle 1.26825e-013 -1.66979e-014
lhumerus 8.9775 -45.9118 75.597
lradius 63.3694
lwrist -20.7043
lhand -42.7526 -54.2283
lfingers 7.12502
lthumb -15.6201 -24.8389
rfemur -33.4946 -10.872 17.2665
rtibia 57.2895
rfoot -25.0405 1.96401
rtoes -20.4925
lfemur -19.8563 14.3025 -9.80507
ltibia 58.9058
lfoot -30.9081 3.34905
ltoes -31.833
417
root 23.2868 15.5394 -2.72811 -170.886 -146.905 177.467
lowerback 6.20484 -0.206631 4.96311
upperback 4.61075 -0.0839066 -3.03563
thorax 1.29449 0.0994115 -5.94936
lowerneck -6.54348 0.10848 2.86104
upperneck 12.2583 -0.804706 4.45495
head 4.77036 -0.0168303 0.85678
rclavicle -1.02573e-013 1.59028e-014
rhumerus 0.117371 28.8267 -85.4383
rradius 75.3187
rwrist 13.8539
rhand -42.8447 3.11162
rfingers 7.12502
rthumb -15.7088 -26.2708
lclavicle -1.02573e-013 1.59028e-014
lhumerus 8.95505 -45.9007 76.0452
lradius 63.4231
lwrist -20.8993
lhand -42.4494 -53.5489
lfingers 7.12502
lthumb -15.3281 -24.137
rfemur -33.421 -10.8944 17.1047
rtibia 57.1932
rfoot -25.2272 1.84653
rtoes -20.2355
lfemur -20.413 14.6698 -9.72557
ltibia 59.6603
lfoot -29.9729 2.22452
ltoes -31.6774
418
root 23.2913 15.5447 -2.71784 -170.876 -147.004 177.616
lowerback 5.98602 -0.285852 4.94236
upperback 4.5774 -0.197677 -2.92032
thorax 1.36469 0.0421629 -5.80966
lowerneck -6.57335 0.0248903 2.46939
upperneck 12.4049 -0.896252 4.57126
head 4.82198 -0.0684009 0.951663
rclavicle 7.15625e-014 -1.19271e-014
rhumerus 0.10538 29.415 -85.1248
rradius 75.3697
rwrist 14.1342
rhand -43.0432 3.20246
rfingers 7.12502
rthumb -15.8999 -26.1648
lclavicle 7.15625e-014 -1.19271e-014
lhumerus 8.79687 -45.8412 76.5946
lradius 63.5055
lwrist -21.0709
lhand -42.1312 -53.0188
lfingers 7.12502
lthumb -15.0215 -23.5837
rfemur -33.3414 -10.8502 16.9518
rtibia 57.0014
rfoot -25.3422 1.73363
rtoes -19.7884
lfemur -21.0052 14.9844 -9.63129
ltibia 60.3645
lfoot -28.9472 0.935386
ltoes -31.0188
419
root 23.2981 15.5562 -2.70504 -170.816 -147.094 177.748
lowerback 5.74241 -0.36673 4.91269
upperback 4.51623 -0.314703 -2.79135
thorax 1.41987 -0.0181247 -5.65105
lowerneck -6.57594 -0.0448734 2.07934
upperneck 12.5331 -0.963639 4.66175
head 4.86326 -0.110698 1.03981
rclavicle -8.50798e-014 -3.4191e-014
rhumerus 0.0638855 30.0921 -84.7526
rradius 75.3966
rwrist 14.4605
rhand -43.2154 3.40453
rfingers 7.12502
rthumb -16.0658 -25.9494
lclavicle -8.50798e-014 -3.4191e-014
lhumerus 8.50297 -45.7211 77.2573
lradius 63.6015
lwrist -21.2351
lhand -41.7986 -52.5974
lfingers 7.12502
lthumb -14.7011 -23.1386
rfemur -33.2627 -10.7369 16.8049
rtibia 56.729
rfoot -25.3664 1.62067
rtoes -19.1942
lfemur -21.6103 15.2318 -9.52169
ltibia 61.0037
lfoot -27.8669 -0.451354
ltoes -29.9608
420
root 23.3071 15.5737 -2.6902 -170.727 -147.178 177.87
lowerback 5.49089 -0.45442 4.84638
upperback 4.43787 -0.442447 -2.63803
thorax 1.46097 -0.0857363 -5.4463
lowerneck -6.54079 -0.0934532 1.67625
upperneck 12.6159 -0.993078 4.72247
head 4.88373 -0.138571 1.12314
rclavicle -6.42074e-014 2.3059e-014
rhumerus -0.0043481 30.8581 -84.3387
rradius 75.3918
rwrist 14.8578
rhand -43.2894 3.75096
rfingers 7.12502
rthumb -16.137 -25.5972
lclavicle -6.42074e-014 2.3059e-014
lhumerus 8.07603 -45.5252 78.0404
lradius 63.7009
lwrist -21.4314
lhand -41.5289 -52.2842
lfingers 7.12502
lthumb -14.4413 -22.8067
rfemur -33.1759 -10.5793 16.6564
rtibia 56.3867
rfoot -25.3057 1.46267
rtoes -18.7438
lfemur -22.1986 15.3953 -9.40113
ltibia 61.5602
lfoot -26.7603 -1.82285
ltoes -28.7875
421
root 23.318 15.5973 -2.67354 -170.633 -147.265 177.993
lowerback 5.24581 -0.542866 4.74117
upperback 4.35397 -0.572335 -2.46758
thorax 1.4938 -0.155873 -5.20238
lowerneck -6.47141 -0.13459 1.27543
upperneck 12.6374 -1.00348 4.74508
head 4.87905 -0.16117 1.19534
rclavicle -5.24792e-014 -1.27222e-014
rhumerus -0.106823 31.6723 -83.9012
rradius 75.3585
rwrist 15.3273
rhand -43.1386 4.29476
rfingers 7.12502
rthumb -15.9918 -25.0652
lclavicle -5.24792e-014 -1.27222e-014
lhumerus 7.55132 -45.3061 78.9099
lradius 63.8144
lwrist -21.6726
lhand -41.391 -52.0397
lfingers 7.12502
lthumb -14.3084 -22.5527
rfemur -33.0661 -10.4084 16.4962
rtibia 55.9813
rfoot -25.1735 1.21453
rtoes -18.7291
lfemur -22.7472 15.4718 -9.28026
ltibia 62.0183
lfoot -25.6738 -3.0498
ltoes -28.0116
422
root 23.3308 15.627 -2.65502 -170.541 -147.363 178.112
lowerback 5.01144 -0.616583 4.63215
upperback 4.27195 -0.682198 -2.30414
thorax 1.52658 -0.215855 -4.96561
lowerneck -6.37819 -0.191498 0.917419
upperneck 12.5909 -1.03292 4.74063
head 4.84972 -0.194286 1.25079
rclavicle -3.598e-014 -1.59028e-014
rhumerus -0.264404 32.4851 -83.4728
rradius 75.3045
rwrist 15.7578
rhand -42.8289 4.89144
rfingers 7.12502
rthumb -15.6936 -24.4922
lclavicle -3.598e-014 -1.59028e-014
lhumerus 6.98077 -45.1523 79.7945
lradius 63.9595
lwrist -21.9272
lhand -41.3508 -51.776
lfingers 7.12502
lthumb -14.2697 -22.2863
rfemur -32.9237 -10.2366 16.3265
rtibia 55.5164
rfoot -24.9711 0.870215
rtoes -19.1924
lfemur -23.2474 15.4679 -9.15809
ltibia 62.3692
lfoot -24.6677 -4.08515
ltoes -27.9738
423
root 23.3455 15.6622 -2.63434 -170.447 -147.481 178.223
lowerback 4.78291 -0.681241 4.54117
upperback 4.19397 -0.779033 -2.154
thorax 1.56293 -0.268465 -4.75456
lowerneck -6.27083 -0.267702 0.599008
upperneck 12.479 -1.08879 4.72621
head 4.7986 -0.24024 1.29489
rclavicle -1.41137e-014 -8.74653e-015
rhumerus -0.48129 33.3251 -83.067
rradius 75.2335
rwrist 15.9735
rhand -42.5274 5.35811
rfingers 7.12502
rthumb -15.4032 -24.0481
lclavicle -1.41137e-014 -8.74653e-015
lhumerus 6.37411 -45.0978 80.6562
lradius 64.1534
lwrist -22.2469
lhand -41.5794 -51.4085
lfingers 7.12502
lthumb -14.49 -21.9344
rfemur -32.7478 -10.0834 16.1527
rtibia 54.9959
rfoot -24.6981 0.465281
rtoes -20.0291
lfemur -23.7098 15.3992 -9.04336
ltibia 62.6128
lfoot -23.8009 -4.86699
ltoes -28.94
424
root 23.3624 15.7028 -2.61137 -170.345 -147.631 178.325
lowerback 4.55796 -0.761663 4.45145
upperback 4.11728 -0.896632 -1.99345
thorax 1.59747 -0.33154 -4.53351
lowerneck -6.16408 -0.350858 0.242174
upperneck 12.3159 -1.1494 4.72163
head 4.73244 -0.290129 1.34801
rclavicle -1.00187e-013 3.37934e-014
rhumerus -0.730018 34.2783 -82.6454
rradius 75.1472
rwrist 15.98
rhand -42.3581 5.46923
rfingers 7.12502
rthumb -15.2401 -23.9494
lclavicle -1.00187e-013 3.37934e-014
lhumerus 5.70141 -45.014 81.5343
lradius 64.3675
lwrist -22.6534
lhand -41.9838 -51.0474
lfingers 7.12502
lthumb -14.8796 -21.6018
rfemur -32.5417 -9.95351 15.9749
rtibia 54.4234
rfoot -24.3537 0.0620014
rtoes -20.9648
lfemur -24.1471 15.259 -8.9378
ltibia 62.7529
lfoot -23.0971 -5.47137
ltoes -30.4769
425
root 23.3812 15.7478 -2.58607 -170.222 -147.811 178.42
lowerback 4.32606 -0.877718 4.33789
upperback 4.0347 -1.06258 -1.79872
thorax 1.6266 -0.419956 -4.26286
lowerneck -6.06454 -0.427575 -0.219785
upperneck 12.1074 -1.1915 4.73881
head 4.65392 -0.33442 1.42618
rclavicle -4.81059e-014 3.69739e-014
rhumerus -0.973491 35.3523 -82.1667
rradius 75.0222
rwrist 15.9534
rhand -42.3423 5.28476
rfingers 7.12502
rthumb -15.2249 -24.135
lclavicle -4.81059e-014 3.69739e-014
lhumerus 4.93736 -44.8202 82.4663
lradius 64.6408
lwrist -23.0171
lhand -42.3423 -50.3584
lfingers 7.12502
lthumb -15.2249 -20.9386
rfemur -32.3204 -9.83067 15.7925
rtibia 53.8058
rfoot -23.941 -0.271871
rtoes -21.623
lfemur -24.5801 15.0431 -8.84257
ltibia 62.798
lfoot -22.564 -5.96807
ltoes -32.1515
426
root 23.4015 15.7965 -2.55844 -170.068 -148.02 178.511
lowerback 4.07263 -1.0394 4.16901
upperback 3.94129 -1.2915 -1.54984
thorax 1.65415 -0.541882 -3.90447
lowerneck -5.97896 -0.488503 -0.821354
upperneck 11.8591 -1.19919 4.77467
head 4.56571 -0.366414 1.535
rclavicle -1.70955e-014 1.43125e-014
rhumerus -1.17822 36.6003 -81.5874
rradius 74.8584
rwrist 15.9026
rhand -42.574 4.72198
rfingers 7.12502
rthumb -15.4481 -24.6807
lclavicle -1.70955e-014 1.43125e-014
lhumerus 4.09073 -44.4346 83.4741
lradius 64.9429
lwrist -23.2752
lhand -42.4697 -49.3493
lfingers 7.12502
lthumb -15.3476 -19.9389
rfemur -32.1014 -9.70291 15.6046
rtibia 53.1542
rfoot -23.4751 -0.532027
rtoes -21.9093
lfemur -25.0266 14.7536 -8.76008
ltibia 62.754
lfoot -22.2012 -6.37745
ltoes -33.7413
427
root 23.4227 15.8472 -2.52877 -169.881 -148.247 178.599
lowerback 3.79423 -1.24392 3.92224
upperback 3.8383 -1.58017 -1.23661
thorax 1.68731 -0.696028 -3.43651
lowerneck -5.92047 -0.536191 -1.5777
upperneck 11.5791 -1.17517 4.82958
head 4.47246 -0.387218 1.67683
rclavicle 3.01159e-014 -7.95139e-015
rhumerus -1.3038 38.0128 -80.8661
rradius 74.6478
rwrist 15.8808
rhand -43.064 4.06632
rfingers 7.12502
rthumb -15.92 -25.2993
lclavicle 3.01159e-014 -7.95139e-015
lhumerus 3.20332 -43.8614 84.5445
lradius 65.2712
lwrist -23.3013
lhand -42.1963 -47.9589
lfingers 7.12502
lthumb -15.0843 -18.5285
rfemur -31.896 -9.53786 15.4113
rtibia 52.4842
rfoot -22.9632 -0.767257
rtoes -21.8956
lfemur -25.4973 14.4241 -8.69622
ltibia 62.6242
lfoot -21.987 -6.67264
ltoes -35.2345
428
root 23.4451 15.8988 -2.49722 -169.667 -148.473 178.692
lowerback 3.49215 -1.4677 3.60701
upperback 3.72659 -1.8963 -0.884354
thorax 1.73189 -0.865508 -2.89285
lowerneck -5.87781 -0.593069 -2.43048
upperneck 11.2573 -1.15454 4.89358
head 4.37012 -0.411803 1.83689
rclavicle 4.76089e-014 -2.46493e-014
rhumerus -1.35292 39.493 -80.0205
rradius 74.3981
rwrist 15.9722
rhand -43.5741 3.35279
rfingers 7.12502
rthumb -16.4111 -25.973
lclavicle 4.76089e-014 -2.46493e-014
lhumerus 2.3192 -43.1951 85.6363
lradius 65.6133
lwrist -23.0785
lhand -41.5607 -46.2605
lfingers 7.12502
lthumb -14.4719 -16.7852
rfemur -31.715 -9.31305 15.2011
rtibia 51.8126
rfoot -22.4097 -1.01055
rtoes -21.6936
lfemur -25.9799 14.0678 -8.65343
ltibia 62.4062
lfoot -21.8289 -7.00801
ltoes -36.0551
429
root 23.4688 15.9509 -2.46367 -169.439 -148.686 178.801
lowerback 3.1736 -1.68687 3.24396
upperback 3.60641 -2.20667 -0.523515
thorax 1.78735 -1.03291 -2.31792
lowerneck -5.82729 -0.689109 -3.30326
upperneck 10.8763 -1.18293 4.94223
head 4.25104 -0.460625 1.99246
rclavicle 5.52621e-014 1.11319e-014
rhumerus -1.369 41.0578 -79.0967
rradius 74.1646
rwrist 15.9343
rhand -44.2752 2.3856
rfingers 7.12502
rthumb -17.0861 -26.8831
lclavicle 5.52621e-014 1.11319e-014
lhumerus 1.468 -42.5193 86.7155
lradius 65.9643
lwrist -22.63
lhand -40.5495 -44.3883
lfingers 7.12502
lthumb -13.4974 -14.8457
rfemur -31.5603 -9.05517 14.9623
rtibia 51.1516
rfoot -21.83 -1.28021
rtoes -21.5601
lfemur -26.4686 13.7177 -8.64273
ltibia 62.1007
lfoot -21.6899 -7.2401
ltoes -36.3623
430
root 23.494 16.0025 -2.42853 -169.227 -148.884 178.909
lowerback 2.88046 -1.86872 2.90166
upperback 3.48796 -2.46456 -0.205754
thorax 1.83908 -1.17299 -1.80273
lowerneck -5.74643 -0.864377 -4.08516
upperneck 10.4299 -1.32737 4.97886
head 4.11295 -0.562037 2.1229
rclavicle -3.32467e-014 -2.66371e-014
rhumerus -1.43131 42.585 -78.2061
rradius 73.9813
rwrist 15.6942
rhand -45.1094 1.11277
rfingers 7.12502
rthumb -17.8889 -28.0845
lclavicle -3.32467e-014 -2.66371e-014
lhumerus 0.665143 -41.9864 87.7208
lradius 66.3157
lwrist -21.9828
lhand -39.2485 -42.5182
lfingers 7.12502
lthumb -12.2432 -12.8965
rfemur -31.3925 -8.76294 14.7026
rtibia 50.5098
rfoot -21.2347 -1.57213
rtoes -21.5228
lfemur -26.9191 13.4122 -8.63831
ltibia 61.7064
lfoot -21.5215 -7.33889
ltoes -36.2379
